<mxfile host="app.diagrams.net" modified="2023-11-09T11:58:33.834Z" agent="Mozilla/5.0 (Windows NT 10.0; Win64; x64) AppleWebKit/537.36 (KHTML, like Gecko) Chrome/119.0.0.0 Safari/537.36" etag="pJbh08Mv7Rp5XfqOA7kW" version="22.1.0" type="device">
  <diagram name="Sayfa -1" id="FOxv09EoOxBMAMzy708H">
    <mxGraphModel dx="989" dy="517" grid="1" gridSize="10" guides="1" tooltips="1" connect="1" arrows="1" fold="1" page="0" pageScale="1" pageWidth="827" pageHeight="1169" math="0" shadow="0">
      <root>
        <mxCell id="0" />
        <mxCell id="1" parent="0" />
        <mxCell id="aWbM3scvBsIQMHwTuFK0-4" value="&lt;font style=&quot;font-size: 24px;&quot;&gt;a&lt;/font&gt;" style="text;html=1;align=center;verticalAlign=middle;resizable=0;points=[];autosize=1;strokeColor=none;fillColor=none;strokeWidth=1;" parent="1" vertex="1">
          <mxGeometry y="50" width="40" height="40" as="geometry" />
        </mxCell>
        <mxCell id="aWbM3scvBsIQMHwTuFK0-6" value="&lt;font style=&quot;font-size: 24px;&quot;&gt;b&lt;/font&gt;" style="text;html=1;align=center;verticalAlign=middle;resizable=0;points=[];autosize=1;strokeColor=none;fillColor=none;strokeWidth=1;" parent="1" vertex="1">
          <mxGeometry x="160" y="50" width="40" height="40" as="geometry" />
        </mxCell>
        <mxCell id="aWbM3scvBsIQMHwTuFK0-7" value="&lt;font style=&quot;font-size: 24px;&quot;&gt;c&lt;/font&gt;" style="text;html=1;align=center;verticalAlign=middle;resizable=0;points=[];autosize=1;strokeColor=none;fillColor=none;strokeWidth=1;" parent="1" vertex="1">
          <mxGeometry x="240" y="50" width="40" height="40" as="geometry" />
        </mxCell>
        <mxCell id="_kOfEBYSEIanbinO5HwG-2" value="&lt;font style=&quot;font-size: 24px;&quot;&gt;a&#39;&lt;/font&gt;" style="text;html=1;align=center;verticalAlign=middle;resizable=0;points=[];autosize=1;strokeColor=none;fillColor=none;strokeWidth=1;" parent="1" vertex="1">
          <mxGeometry x="80" y="50" width="40" height="40" as="geometry" />
        </mxCell>
        <mxCell id="_kOfEBYSEIanbinO5HwG-3" value="&lt;font style=&quot;font-size: 24px;&quot;&gt;c&#39;&lt;/font&gt;" style="text;html=1;align=center;verticalAlign=middle;resizable=0;points=[];autosize=1;strokeColor=none;fillColor=none;strokeWidth=1;" parent="1" vertex="1">
          <mxGeometry x="320" y="50" width="40" height="40" as="geometry" />
        </mxCell>
        <mxCell id="_kOfEBYSEIanbinO5HwG-4" value="" style="endArrow=none;html=1;rounded=0;" parent="1" source="_kOfEBYSEIanbinO5HwG-13" edge="1">
          <mxGeometry width="50" height="50" relative="1" as="geometry">
            <mxPoint x="20" y="320" as="sourcePoint" />
            <mxPoint x="19.71" y="80" as="targetPoint" />
          </mxGeometry>
        </mxCell>
        <mxCell id="_kOfEBYSEIanbinO5HwG-5" value="" style="endArrow=none;html=1;rounded=0;" parent="1" source="_kOfEBYSEIanbinO5HwG-23" edge="1">
          <mxGeometry width="50" height="50" relative="1" as="geometry">
            <mxPoint x="100" y="320" as="sourcePoint" />
            <mxPoint x="99.71" y="80" as="targetPoint" />
          </mxGeometry>
        </mxCell>
        <mxCell id="_kOfEBYSEIanbinO5HwG-6" value="" style="endArrow=none;html=1;rounded=0;" parent="1" source="_kOfEBYSEIanbinO5HwG-37" edge="1">
          <mxGeometry width="50" height="50" relative="1" as="geometry">
            <mxPoint x="180" y="320" as="sourcePoint" />
            <mxPoint x="179.71" y="80" as="targetPoint" />
          </mxGeometry>
        </mxCell>
        <mxCell id="_kOfEBYSEIanbinO5HwG-7" value="" style="endArrow=none;html=1;rounded=0;" parent="1" source="_kOfEBYSEIanbinO5HwG-21" edge="1">
          <mxGeometry width="50" height="50" relative="1" as="geometry">
            <mxPoint x="260" y="340" as="sourcePoint" />
            <mxPoint x="259.71" y="80" as="targetPoint" />
          </mxGeometry>
        </mxCell>
        <mxCell id="_kOfEBYSEIanbinO5HwG-8" value="" style="endArrow=none;html=1;rounded=0;exitX=0.5;exitY=0;exitDx=0;exitDy=0;" parent="1" source="_kOfEBYSEIanbinO5HwG-30" edge="1">
          <mxGeometry width="50" height="50" relative="1" as="geometry">
            <mxPoint x="340" y="320" as="sourcePoint" />
            <mxPoint x="339.71" y="80" as="targetPoint" />
            <Array as="points">
              <mxPoint x="340" y="180" />
            </Array>
          </mxGeometry>
        </mxCell>
        <mxCell id="_kOfEBYSEIanbinO5HwG-20" value="" style="endArrow=none;html=1;rounded=0;" parent="1" target="_kOfEBYSEIanbinO5HwG-13" edge="1">
          <mxGeometry width="50" height="50" relative="1" as="geometry">
            <mxPoint x="20" y="340" as="sourcePoint" />
            <mxPoint x="19.71" y="80" as="targetPoint" />
          </mxGeometry>
        </mxCell>
        <mxCell id="_kOfEBYSEIanbinO5HwG-13" value="" style="shape=ellipse;fillColor=#000000;strokeColor=none;html=1;sketch=0;" parent="1" vertex="1">
          <mxGeometry x="16" y="142" width="8" height="8" as="geometry" />
        </mxCell>
        <mxCell id="_kOfEBYSEIanbinO5HwG-24" value="" style="endArrow=none;html=1;rounded=0;" parent="1" source="_kOfEBYSEIanbinO5HwG-35" target="_kOfEBYSEIanbinO5HwG-23" edge="1">
          <mxGeometry width="50" height="50" relative="1" as="geometry">
            <mxPoint x="100" y="320" as="sourcePoint" />
            <mxPoint x="99.71" y="80" as="targetPoint" />
          </mxGeometry>
        </mxCell>
        <mxCell id="_kOfEBYSEIanbinO5HwG-23" value="" style="shape=ellipse;fillColor=#000000;strokeColor=none;html=1;sketch=0;" parent="1" vertex="1">
          <mxGeometry x="96" y="210" width="8" height="8" as="geometry" />
        </mxCell>
        <mxCell id="_kOfEBYSEIanbinO5HwG-27" value="" style="verticalLabelPosition=bottom;shadow=0;dashed=0;align=center;html=1;verticalAlign=top;shape=mxgraph.electrical.logic_gates.logic_gate;operation=and;negating=1;negSize=0.15;" parent="1" vertex="1">
          <mxGeometry x="410" y="130" width="100" height="60" as="geometry" />
        </mxCell>
        <mxCell id="_kOfEBYSEIanbinO5HwG-28" value="" style="endArrow=none;html=1;rounded=0;entryX=0;entryY=0.25;entryDx=0;entryDy=0;entryPerimeter=0;" parent="1" source="_kOfEBYSEIanbinO5HwG-13" target="_kOfEBYSEIanbinO5HwG-27" edge="1">
          <mxGeometry width="50" height="50" relative="1" as="geometry">
            <mxPoint x="30" y="160" as="sourcePoint" />
            <mxPoint x="280" y="150" as="targetPoint" />
          </mxGeometry>
        </mxCell>
        <mxCell id="_kOfEBYSEIanbinO5HwG-31" value="" style="endArrow=none;html=1;rounded=0;" parent="1" target="_kOfEBYSEIanbinO5HwG-30" edge="1">
          <mxGeometry width="50" height="50" relative="1" as="geometry">
            <mxPoint x="340" y="340" as="sourcePoint" />
            <mxPoint x="340" y="180" as="targetPoint" />
          </mxGeometry>
        </mxCell>
        <mxCell id="_kOfEBYSEIanbinO5HwG-30" value="" style="shape=ellipse;fillColor=#000000;strokeColor=none;html=1;sketch=0;" parent="1" vertex="1">
          <mxGeometry x="336" y="240" width="8" height="8" as="geometry" />
        </mxCell>
        <mxCell id="_kOfEBYSEIanbinO5HwG-32" value="" style="verticalLabelPosition=bottom;shadow=0;dashed=0;align=center;html=1;verticalAlign=top;shape=mxgraph.electrical.logic_gates.logic_gate;operation=and;negating=1;negSize=0.15;" parent="1" vertex="1">
          <mxGeometry x="410" y="200" width="100" height="60" as="geometry" />
        </mxCell>
        <mxCell id="_kOfEBYSEIanbinO5HwG-33" value="" style="endArrow=none;html=1;rounded=0;exitX=0.35;exitY=0.6;exitDx=0;exitDy=0;exitPerimeter=0;entryX=0;entryY=0.75;entryDx=0;entryDy=0;entryPerimeter=0;" parent="1" source="_kOfEBYSEIanbinO5HwG-30" target="_kOfEBYSEIanbinO5HwG-32" edge="1">
          <mxGeometry width="50" height="50" relative="1" as="geometry">
            <mxPoint x="350" y="260" as="sourcePoint" />
            <mxPoint x="400" y="210" as="targetPoint" />
          </mxGeometry>
        </mxCell>
        <mxCell id="_kOfEBYSEIanbinO5HwG-34" value="" style="endArrow=none;html=1;rounded=0;exitX=0.35;exitY=0.65;exitDx=0;exitDy=0;exitPerimeter=0;entryX=0;entryY=0.25;entryDx=0;entryDy=0;entryPerimeter=0;" parent="1" source="_kOfEBYSEIanbinO5HwG-23" target="_kOfEBYSEIanbinO5HwG-32" edge="1">
          <mxGeometry width="50" height="50" relative="1" as="geometry">
            <mxPoint x="120" y="230" as="sourcePoint" />
            <mxPoint x="170" y="180" as="targetPoint" />
          </mxGeometry>
        </mxCell>
        <mxCell id="_kOfEBYSEIanbinO5HwG-36" value="" style="endArrow=none;html=1;rounded=0;" parent="1" target="_kOfEBYSEIanbinO5HwG-35" edge="1">
          <mxGeometry width="50" height="50" relative="1" as="geometry">
            <mxPoint x="100" y="340" as="sourcePoint" />
            <mxPoint x="100" y="218" as="targetPoint" />
          </mxGeometry>
        </mxCell>
        <mxCell id="_kOfEBYSEIanbinO5HwG-35" value="" style="shape=ellipse;fillColor=#000000;strokeColor=none;html=1;sketch=0;" parent="1" vertex="1">
          <mxGeometry x="96" y="282" width="8" height="8" as="geometry" />
        </mxCell>
        <mxCell id="_kOfEBYSEIanbinO5HwG-38" value="" style="endArrow=none;html=1;rounded=0;" parent="1" target="_kOfEBYSEIanbinO5HwG-37" edge="1">
          <mxGeometry width="50" height="50" relative="1" as="geometry">
            <mxPoint x="180" y="340" as="sourcePoint" />
            <mxPoint x="179.71" y="80" as="targetPoint" />
          </mxGeometry>
        </mxCell>
        <mxCell id="_kOfEBYSEIanbinO5HwG-37" value="" style="shape=ellipse;fillColor=#000000;strokeColor=none;html=1;sketch=0;" parent="1" vertex="1">
          <mxGeometry x="176" y="310" width="8" height="8" as="geometry" />
        </mxCell>
        <mxCell id="_kOfEBYSEIanbinO5HwG-39" value="" style="verticalLabelPosition=bottom;shadow=0;dashed=0;align=center;html=1;verticalAlign=top;shape=mxgraph.electrical.logic_gates.logic_gate;operation=and;negating=1;negSize=0.15;" parent="1" vertex="1">
          <mxGeometry x="410" y="270" width="100" height="60" as="geometry" />
        </mxCell>
        <mxCell id="_kOfEBYSEIanbinO5HwG-40" value="" style="endArrow=none;html=1;rounded=0;exitX=0.35;exitY=0.65;exitDx=0;exitDy=0;exitPerimeter=0;entryX=0;entryY=0.25;entryDx=0;entryDy=0;entryPerimeter=0;" parent="1" source="_kOfEBYSEIanbinO5HwG-35" target="_kOfEBYSEIanbinO5HwG-39" edge="1">
          <mxGeometry width="50" height="50" relative="1" as="geometry">
            <mxPoint x="120" y="300" as="sourcePoint" />
            <mxPoint x="170" y="250" as="targetPoint" />
          </mxGeometry>
        </mxCell>
        <mxCell id="_kOfEBYSEIanbinO5HwG-41" value="" style="endArrow=none;html=1;rounded=0;exitX=0.35;exitY=0.6;exitDx=0;exitDy=0;exitPerimeter=0;entryX=0;entryY=0.75;entryDx=0;entryDy=0;entryPerimeter=0;" parent="1" source="_kOfEBYSEIanbinO5HwG-37" target="_kOfEBYSEIanbinO5HwG-39" edge="1">
          <mxGeometry width="50" height="50" relative="1" as="geometry">
            <mxPoint x="200" y="330" as="sourcePoint" />
            <mxPoint x="250" y="280" as="targetPoint" />
          </mxGeometry>
        </mxCell>
        <mxCell id="_kOfEBYSEIanbinO5HwG-42" value="" style="verticalLabelPosition=bottom;shadow=0;dashed=0;align=center;html=1;verticalAlign=top;shape=mxgraph.electrical.logic_gates.logic_gate;operation=and;negating=1;negSize=0.15;" parent="1" vertex="1">
          <mxGeometry x="520" y="165" width="100" height="60" as="geometry" />
        </mxCell>
        <mxCell id="_kOfEBYSEIanbinO5HwG-44" value="" style="endArrow=none;html=1;rounded=0;" parent="1" edge="1">
          <mxGeometry width="50" height="50" relative="1" as="geometry">
            <mxPoint x="510" y="160" as="sourcePoint" />
            <mxPoint x="520" y="180" as="targetPoint" />
            <Array as="points">
              <mxPoint x="520" y="160" />
              <mxPoint x="520" y="170" />
            </Array>
          </mxGeometry>
        </mxCell>
        <mxCell id="_kOfEBYSEIanbinO5HwG-46" value="" style="endArrow=none;html=1;rounded=0;exitX=1;exitY=0.5;exitDx=0;exitDy=0;exitPerimeter=0;entryX=0;entryY=0.75;entryDx=0;entryDy=0;entryPerimeter=0;" parent="1" source="_kOfEBYSEIanbinO5HwG-32" target="_kOfEBYSEIanbinO5HwG-42" edge="1">
          <mxGeometry width="50" height="50" relative="1" as="geometry">
            <mxPoint x="520" y="228" as="sourcePoint" />
            <mxPoint x="530" y="210" as="targetPoint" />
            <Array as="points">
              <mxPoint x="520" y="230" />
              <mxPoint x="520" y="220" />
            </Array>
          </mxGeometry>
        </mxCell>
        <mxCell id="_kOfEBYSEIanbinO5HwG-48" value="" style="verticalLabelPosition=bottom;shadow=0;dashed=0;align=center;html=1;verticalAlign=top;shape=mxgraph.electrical.logic_gates.logic_gate;operation=and;negating=1;negSize=0.15;" parent="1" vertex="1">
          <mxGeometry x="720" y="210" width="100" height="60" as="geometry" />
        </mxCell>
        <mxCell id="_kOfEBYSEIanbinO5HwG-49" value="" style="endArrow=none;html=1;rounded=0;entryX=0;entryY=0.75;entryDx=0;entryDy=0;entryPerimeter=0;" parent="1" target="_kOfEBYSEIanbinO5HwG-48" edge="1">
          <mxGeometry width="50" height="50" relative="1" as="geometry">
            <mxPoint x="510" y="300" as="sourcePoint" />
            <mxPoint x="560" y="250" as="targetPoint" />
            <Array as="points">
              <mxPoint x="680" y="300" />
              <mxPoint x="720" y="300" />
            </Array>
          </mxGeometry>
        </mxCell>
        <mxCell id="_kOfEBYSEIanbinO5HwG-64" value="" style="endArrow=none;html=1;rounded=0;" parent="1" target="_kOfEBYSEIanbinO5HwG-21" edge="1">
          <mxGeometry width="50" height="50" relative="1" as="geometry">
            <mxPoint x="260" y="340" as="sourcePoint" />
            <mxPoint x="259.71" y="80" as="targetPoint" />
          </mxGeometry>
        </mxCell>
        <mxCell id="_kOfEBYSEIanbinO5HwG-21" value="" style="shape=ellipse;fillColor=#000000;strokeColor=none;html=1;sketch=0;movable=1;resizable=1;rotatable=1;deletable=1;editable=1;locked=0;connectable=1;" parent="1" vertex="1">
          <mxGeometry x="256" y="170" width="8" height="8" as="geometry" />
        </mxCell>
        <mxCell id="_kOfEBYSEIanbinO5HwG-65" value="" style="endArrow=none;html=1;rounded=0;exitX=0;exitY=0.5;exitDx=0;exitDy=0;entryX=0;entryY=0.75;entryDx=0;entryDy=0;entryPerimeter=0;" parent="1" source="_kOfEBYSEIanbinO5HwG-21" target="_kOfEBYSEIanbinO5HwG-27" edge="1">
          <mxGeometry width="50" height="50" relative="1" as="geometry">
            <mxPoint x="270" y="180" as="sourcePoint" />
            <mxPoint x="320" y="130" as="targetPoint" />
          </mxGeometry>
        </mxCell>
        <mxCell id="gv9bhv6M-jt71tn40tOQ-2" value="" style="verticalLabelPosition=bottom;shadow=0;dashed=0;align=center;html=1;verticalAlign=top;shape=mxgraph.electrical.logic_gates.logic_gate;operation=and;negating=1;negSize=0.15;" parent="1" vertex="1">
          <mxGeometry x="620" y="165" width="100" height="60" as="geometry" />
        </mxCell>
        <mxCell id="gv9bhv6M-jt71tn40tOQ-4" value="" style="endArrow=none;html=1;rounded=0;exitX=1;exitY=0.5;exitDx=0;exitDy=0;exitPerimeter=0;entryX=0;entryY=0.25;entryDx=0;entryDy=0;entryPerimeter=0;" parent="1" source="_kOfEBYSEIanbinO5HwG-42" target="gv9bhv6M-jt71tn40tOQ-2" edge="1">
          <mxGeometry width="50" height="50" relative="1" as="geometry">
            <mxPoint x="600" y="160" as="sourcePoint" />
            <mxPoint x="650" y="110" as="targetPoint" />
          </mxGeometry>
        </mxCell>
        <mxCell id="gv9bhv6M-jt71tn40tOQ-6" value="" style="endArrow=none;html=1;rounded=0;exitX=1;exitY=0.5;exitDx=0;exitDy=0;exitPerimeter=0;entryX=0;entryY=0.75;entryDx=0;entryDy=0;entryPerimeter=0;" parent="1" source="_kOfEBYSEIanbinO5HwG-42" target="gv9bhv6M-jt71tn40tOQ-2" edge="1">
          <mxGeometry width="50" height="50" relative="1" as="geometry">
            <mxPoint x="580" y="120" as="sourcePoint" />
            <mxPoint x="630" y="70" as="targetPoint" />
          </mxGeometry>
        </mxCell>
        <mxCell id="gv9bhv6M-jt71tn40tOQ-7" value="" style="endArrow=none;html=1;rounded=0;exitX=1;exitY=0.5;exitDx=0;exitDy=0;exitPerimeter=0;entryX=0;entryY=0.25;entryDx=0;entryDy=0;entryPerimeter=0;" parent="1" source="gv9bhv6M-jt71tn40tOQ-2" target="_kOfEBYSEIanbinO5HwG-48" edge="1">
          <mxGeometry width="50" height="50" relative="1" as="geometry">
            <mxPoint x="740" y="200" as="sourcePoint" />
            <mxPoint x="790" y="150" as="targetPoint" />
          </mxGeometry>
        </mxCell>
        <mxCell id="gv9bhv6M-jt71tn40tOQ-8" value="" style="verticalLabelPosition=bottom;shadow=0;dashed=0;align=center;html=1;verticalAlign=top;shape=mxgraph.electrical.logic_gates.logic_gate;operation=and;negating=1;negSize=0.15;" parent="1" vertex="1">
          <mxGeometry x="20" y="85" width="80" height="50" as="geometry" />
        </mxCell>
        <mxCell id="gv9bhv6M-jt71tn40tOQ-10" value="" style="verticalLabelPosition=bottom;shadow=0;dashed=0;align=center;html=1;verticalAlign=top;shape=mxgraph.electrical.logic_gates.logic_gate;operation=and;negating=1;negSize=0.15;" parent="1" vertex="1">
          <mxGeometry x="260" y="85" width="80" height="50" as="geometry" />
        </mxCell>
        <mxCell id="BGaobEGGFZ9a1vQQskZm-1" value="f (a,b, c, d)" style="text;html=1;strokeColor=none;fillColor=none;align=center;verticalAlign=middle;whiteSpace=wrap;rounded=0;" vertex="1" parent="1">
          <mxGeometry x="800" y="225" width="110" height="30" as="geometry" />
        </mxCell>
      </root>
    </mxGraphModel>
  </diagram>
</mxfile>
